{
 "cells": [
  {
   "cell_type": "code",
   "execution_count": 1,
   "metadata": {},
   "outputs": [],
   "source": [
    "from miditoolkit.midi import parser\n",
    "import mido"
   ]
  },
  {
   "cell_type": "code",
   "execution_count": 2,
   "metadata": {},
   "outputs": [],
   "source": [
    "path_midi = 'test_midis/test_1.mid'\n",
    "midi_data = parser.MidiFile(path_midi)"
   ]
  },
  {
   "cell_type": "code",
   "execution_count": 5,
   "metadata": {},
   "outputs": [
    {
     "data": {
      "text/plain": [
       "[Marker(text=\"Marker ##\", time=3840),\n",
       " Marker(text=\"Marker ##\", time=11520),\n",
       " Marker(text=\"Marker ##\", time=19200),\n",
       " Marker(text=\"Marker ##\", time=26880),\n",
       " Marker(text=\"Marker ##\", time=34560),\n",
       " Marker(text=\"Marker ##\", time=42240),\n",
       " Marker(text=\"Marker ##\", time=49920),\n",
       " Marker(text=\"Marker ##\", time=57600),\n",
       " Marker(text=\"Marker ##\", time=65280),\n",
       " Marker(text=\"Marker ##\", time=72960),\n",
       " Marker(text=\"Marker ##\", time=80640),\n",
       " Marker(text=\"Marker ##\", time=88320),\n",
       " Marker(text=\"Marker ##\", time=96000),\n",
       " Marker(text=\"Marker ##\", time=103680),\n",
       " Marker(text=\"Marker ##\", time=111360),\n",
       " Marker(text=\"Marker ##\", time=119040),\n",
       " Marker(text=\"Marker ##\", time=126720),\n",
       " Marker(text=\"Marker ##\", time=134400),\n",
       " Marker(text=\"Marker ##\", time=142080),\n",
       " Marker(text=\"Marker ##\", time=149760),\n",
       " Marker(text=\"Marker ##\", time=157440),\n",
       " Marker(text=\"Marker ##\", time=165120),\n",
       " Marker(text=\"Marker ##\", time=172800),\n",
       " Marker(text=\"Marker ##\", time=180480),\n",
       " Marker(text=\"Marker ##\", time=188160),\n",
       " Marker(text=\"Marker ##\", time=195840),\n",
       " Marker(text=\"Marker ##\", time=203520),\n",
       " Marker(text=\"Marker ##\", time=211200),\n",
       " Marker(text=\"Marker ##\", time=218880),\n",
       " Marker(text=\"Marker ##\", time=226560),\n",
       " Marker(text=\"Marker ##\", time=234240),\n",
       " Marker(text=\"Marker ##\", time=241920),\n",
       " Marker(text=\"Marker ##\", time=249600),\n",
       " Marker(text=\"Marker ##\", time=257280),\n",
       " Marker(text=\"Marker ##\", time=264960),\n",
       " Marker(text=\"Marker ##\", time=272640),\n",
       " Marker(text=\"Marker ##\", time=280320),\n",
       " Marker(text=\"Marker ##\", time=288000),\n",
       " Marker(text=\"Marker ##\", time=295680)]"
      ]
     },
     "execution_count": 5,
     "metadata": {},
     "output_type": "execute_result"
    }
   ],
   "source": [
    "midi_data.markers"
   ]
  },
  {
   "cell_type": "code",
   "execution_count": 4,
   "metadata": {},
   "outputs": [],
   "source": [
    "mido_data = mido.MidiFile(path_midi)"
   ]
  },
  {
   "cell_type": "code",
   "execution_count": 5,
   "metadata": {
    "scrolled": true
   },
   "outputs": [
    {
     "name": "stdout",
     "output_type": "stream",
     "text": [
      "<meta message time_signature numerator=4 denominator=4 clocks_per_click=24 notated_32nd_notes_per_beat=8 time=0>\n",
      "<meta message key_signature key='G' time=0>\n",
      "<meta message smpte_offset frame_rate=24 hours=32 minutes=0 seconds=0 frames=0 sub_frames=0 time=0>\n",
      "<meta message set_tempo tempo=508475 time=0>\n",
      "<meta message marker text='Marker ##' time=3840>\n",
      "<meta message marker text='Marker ##' time=7680>\n",
      "<meta message marker text='Marker ##' time=7680>\n",
      "<meta message marker text='Marker ##' time=7680>\n",
      "<meta message marker text='Marker ##' time=7680>\n",
      "<meta message marker text='Marker ##' time=7680>\n",
      "<meta message marker text='Marker ##' time=7680>\n",
      "<meta message marker text='Marker ##' time=7680>\n",
      "<meta message marker text='Marker ##' time=7680>\n",
      "<meta message marker text='Marker ##' time=7680>\n",
      "<meta message marker text='Marker ##' time=7680>\n",
      "<meta message marker text='Marker ##' time=7680>\n",
      "<meta message marker text='Marker ##' time=7680>\n",
      "<meta message marker text='Marker ##' time=7680>\n",
      "<meta message marker text='Marker ##' time=7680>\n",
      "<meta message marker text='Marker ##' time=7680>\n",
      "<meta message marker text='Marker ##' time=7680>\n",
      "<meta message marker text='Marker ##' time=7680>\n",
      "<meta message marker text='Marker ##' time=7680>\n",
      "<meta message marker text='Marker ##' time=7680>\n",
      "<meta message marker text='Marker ##' time=7680>\n",
      "<meta message marker text='Marker ##' time=7680>\n",
      "<meta message marker text='Marker ##' time=7680>\n",
      "<meta message marker text='Marker ##' time=7680>\n",
      "<meta message marker text='Marker ##' time=7680>\n",
      "<meta message marker text='Marker ##' time=7680>\n",
      "<meta message marker text='Marker ##' time=7680>\n",
      "<meta message marker text='Marker ##' time=7680>\n",
      "<meta message marker text='Marker ##' time=7680>\n",
      "<meta message marker text='Marker ##' time=7680>\n",
      "<meta message marker text='Marker ##' time=7680>\n",
      "<meta message marker text='Marker ##' time=7680>\n",
      "<meta message marker text='Marker ##' time=7680>\n",
      "<meta message marker text='Marker ##' time=7680>\n",
      "<meta message marker text='Marker ##' time=7680>\n",
      "<meta message marker text='Marker ##' time=7680>\n",
      "<meta message marker text='Marker ##' time=7680>\n",
      "<meta message marker text='Marker ##' time=7680>\n",
      "<meta message marker text='Marker ##' time=7680>\n",
      "<meta message end_of_track time=3544320>\n"
     ]
    }
   ],
   "source": [
    "for m in mido_data.tracks[0]:\n",
    "    print(m)"
   ]
  },
  {
   "cell_type": "code",
   "execution_count": 6,
   "metadata": {},
   "outputs": [
    {
     "name": "stdout",
     "output_type": "stream",
     "text": [
      "<meta message track_name name='0_M' time=0>\n",
      "program_change channel=0 program=57 time=0\n",
      "control_change channel=0 control=7 value=127 time=0\n",
      "control_change channel=0 control=10 value=88 time=0\n",
      "control_change channel=0 control=121 value=0 time=0\n",
      "control_change channel=0 control=123 value=0 time=40\n",
      "control_change channel=0 control=93 value=65 time=40\n",
      "control_change channel=0 control=91 value=100 time=40\n",
      "control_change channel=0 control=64 value=0 time=40\n",
      "note_on channel=0 note=72 velocity=123 time=16400\n",
      "note_on channel=0 note=72 velocity=0 time=384\n",
      "note_on channel=0 note=69 velocity=114 time=96\n",
      "note_on channel=0 note=69 velocity=0 time=192\n",
      "note_on channel=0 note=69 velocity=113 time=48\n",
      "note_on channel=0 note=69 velocity=0 time=460\n",
      "note_on channel=0 note=66 velocity=106 time=740\n",
      "note_on channel=0 note=66 velocity=0 time=192\n",
      "note_on channel=0 note=69 velocity=106 time=48\n",
      "note_on channel=0 note=69 velocity=0 time=192\n",
      "note_on channel=0 note=66 velocity=104 time=48\n",
      "note_on channel=0 note=66 velocity=0 time=192\n",
      "note_on channel=0 note=69 velocity=107 time=48\n",
      "note_on channel=0 note=69 velocity=0 time=192\n",
      "note_on channel=0 note=69 velocity=110 time=48\n",
      "note_on channel=0 note=69 velocity=0 time=384\n",
      "note_on channel=0 note=71 velocity=107 time=96\n",
      "note_on channel=0 note=71 velocity=0 time=448\n",
      "note_on channel=0 note=72 velocity=117 time=112\n",
      "note_on channel=0 note=72 velocity=0 time=256\n",
      "note_on channel=0 note=69 velocity=110 time=64\n",
      "note_on channel=0 note=69 velocity=0 time=256\n",
      "note_on channel=0 note=71 velocity=96 time=64\n",
      "note_on channel=0 note=71 velocity=0 time=96\n",
      "note_on channel=0 note=69 velocity=114 time=24\n",
      "note_on channel=0 note=69 velocity=0 time=96\n",
      "note_on channel=0 note=67 velocity=111 time=24\n",
      "note_on channel=0 note=67 velocity=0 time=700\n",
      "note_on channel=0 note=67 velocity=115 time=260\n",
      "note_on channel=0 note=67 velocity=0 time=192\n",
      "note_on channel=0 note=69 velocity=105 time=48\n",
      "note_on channel=0 note=69 velocity=0 time=192\n",
      "note_on channel=0 note=67 velocity=108 time=48\n",
      "note_on channel=0 note=67 velocity=0 time=192\n",
      "note_on channel=0 note=72 velocity=107 time=48\n",
      "note_on channel=0 note=72 velocity=0 time=192\n",
      "note_on channel=0 note=69 velocity=99 time=48\n",
      "note_on channel=0 note=69 velocity=0 time=384\n",
      "note_on channel=0 note=71 velocity=110 time=96\n",
      "note_on channel=0 note=71 velocity=0 time=384\n",
      "note_on channel=0 note=72 velocity=116 time=96\n",
      "note_on channel=0 note=72 velocity=0 time=192\n",
      "note_on channel=0 note=69 velocity=121 time=48\n",
      "note_on channel=0 note=69 velocity=0 time=384\n",
      "note_on channel=0 note=69 velocity=100 time=96\n",
      "note_on channel=0 note=69 velocity=0 time=384\n",
      "note_on channel=0 note=69 velocity=120 time=96\n",
      "note_on channel=0 note=69 velocity=0 time=460\n",
      "note_on channel=0 note=66 velocity=114 time=260\n",
      "note_on channel=0 note=66 velocity=0 time=192\n",
      "note_on channel=0 note=69 velocity=120 time=48\n",
      "note_on channel=0 note=69 velocity=0 time=192\n",
      "note_on channel=0 note=71 velocity=97 time=48\n",
      "note_on channel=0 note=71 velocity=0 time=384\n",
      "note_on channel=0 note=66 velocity=112 time=96\n",
      "note_on channel=0 note=66 velocity=0 time=700\n",
      "note_on channel=0 note=66 velocity=110 time=260\n",
      "note_on channel=0 note=66 velocity=0 time=192\n",
      "note_on channel=0 note=69 velocity=107 time=48\n",
      "note_on channel=0 note=69 velocity=0 time=192\n",
      "note_on channel=0 note=71 velocity=108 time=48\n",
      "note_on channel=0 note=71 velocity=0 time=384\n",
      "note_on channel=0 note=69 velocity=111 time=96\n",
      "note_on channel=0 note=69 velocity=0 time=220\n",
      "note_on channel=0 note=66 velocity=97 time=260\n",
      "note_on channel=0 note=66 velocity=0 time=192\n",
      "note_on channel=0 note=72 velocity=110 time=48\n",
      "note_on channel=0 note=72 velocity=0 time=192\n",
      "note_on channel=0 note=69 velocity=106 time=48\n",
      "note_on channel=0 note=69 velocity=0 time=384\n",
      "note_on channel=0 note=71 velocity=122 time=96\n",
      "note_on channel=0 note=71 velocity=0 time=384\n",
      "note_on channel=0 note=72 velocity=120 time=96\n",
      "note_on channel=0 note=72 velocity=0 time=192\n",
      "note_on channel=0 note=71 velocity=111 time=48\n",
      "note_on channel=0 note=71 velocity=0 time=192\n",
      "note_on channel=0 note=69 velocity=110 time=48\n",
      "note_on channel=0 note=69 velocity=0 time=192\n",
      "note_on channel=0 note=71 velocity=120 time=48\n",
      "note_on channel=0 note=71 velocity=0 time=192\n",
      "note_on channel=0 note=69 velocity=123 time=48\n",
      "note_on channel=0 note=69 velocity=0 time=384\n",
      "note_on channel=0 note=69 velocity=111 time=96\n",
      "note_on channel=0 note=69 velocity=0 time=384\n",
      "note_on channel=0 note=72 velocity=111 time=96\n",
      "note_on channel=0 note=72 velocity=0 time=192\n",
      "note_on channel=0 note=71 velocity=100 time=48\n",
      "note_on channel=0 note=71 velocity=0 time=192\n",
      "note_on channel=0 note=71 velocity=104 time=48\n",
      "note_on channel=0 note=71 velocity=0 time=384\n",
      "note_on channel=0 note=69 velocity=110 time=96\n",
      "note_on channel=0 note=69 velocity=0 time=384\n",
      "note_on channel=0 note=66 velocity=106 time=96\n",
      "note_on channel=0 note=66 velocity=0 time=192\n",
      "note_on channel=0 note=69 velocity=109 time=48\n",
      "note_on channel=0 note=69 velocity=0 time=192\n",
      "note_on channel=0 note=69 velocity=113 time=48\n",
      "note_on channel=0 note=69 velocity=0 time=384\n",
      "note_on channel=0 note=71 velocity=118 time=96\n",
      "note_on channel=0 note=71 velocity=0 time=700\n",
      "note_on channel=0 note=72 velocity=110 time=740\n",
      "note_on channel=0 note=72 velocity=0 time=192\n",
      "note_on channel=0 note=71 velocity=97 time=48\n",
      "note_on channel=0 note=71 velocity=0 time=192\n",
      "note_on channel=0 note=71 velocity=102 time=48\n",
      "note_on channel=0 note=71 velocity=0 time=384\n",
      "note_on channel=0 note=69 velocity=116 time=96\n",
      "note_on channel=0 note=69 velocity=0 time=220\n",
      "note_on channel=0 note=69 velocity=116 time=500\n",
      "note_on channel=0 note=69 velocity=0 time=192\n",
      "note_on channel=0 note=69 velocity=107 time=48\n",
      "note_on channel=0 note=69 velocity=0 time=384\n",
      "note_on channel=0 note=69 velocity=112 time=96\n",
      "note_on channel=0 note=69 velocity=0 time=700\n",
      "note_on channel=0 note=72 velocity=120 time=740\n",
      "note_on channel=0 note=72 velocity=0 time=192\n",
      "note_on channel=0 note=71 velocity=124 time=48\n",
      "note_on channel=0 note=71 velocity=0 time=192\n",
      "note_on channel=0 note=71 velocity=124 time=48\n",
      "note_on channel=0 note=71 velocity=0 time=384\n",
      "note_on channel=0 note=69 velocity=123 time=96\n",
      "note_on channel=0 note=69 velocity=0 time=220\n",
      "note_on channel=0 note=69 velocity=106 time=500\n",
      "note_on channel=0 note=69 velocity=0 time=192\n",
      "note_on channel=0 note=69 velocity=109 time=48\n",
      "note_on channel=0 note=69 velocity=0 time=384\n",
      "note_on channel=0 note=71 velocity=110 time=96\n",
      "note_on channel=0 note=71 velocity=0 time=700\n",
      "note_on channel=0 note=74 velocity=113 time=500\n",
      "note_on channel=0 note=74 velocity=0 time=192\n",
      "note_on channel=0 note=73 velocity=96 time=48\n",
      "note_on channel=0 note=73 velocity=0 time=384\n",
      "note_on channel=0 note=71 velocity=108 time=96\n",
      "note_on channel=0 note=71 velocity=0 time=384\n",
      "note_on channel=0 note=66 velocity=109 time=96\n",
      "note_on channel=0 note=66 velocity=0 time=192\n",
      "note_on channel=0 note=69 velocity=110 time=48\n",
      "note_on channel=0 note=69 velocity=0 time=384\n",
      "note_on channel=0 note=72 velocity=116 time=96\n",
      "note_on channel=0 note=72 velocity=0 time=384\n",
      "note_on channel=0 note=72 velocity=110 time=96\n",
      "note_on channel=0 note=72 velocity=0 time=384\n",
      "note_on channel=0 note=72 velocity=110 time=96\n",
      "note_on channel=0 note=72 velocity=0 time=192\n",
      "note_on channel=0 note=69 velocity=103 time=48\n",
      "note_on channel=0 note=69 velocity=0 time=384\n",
      "note_on channel=0 note=69 velocity=108 time=96\n",
      "note_on channel=0 note=69 velocity=0 time=700\n",
      "note_on channel=0 note=66 velocity=109 time=740\n",
      "note_on channel=0 note=66 velocity=0 time=192\n",
      "note_on channel=0 note=69 velocity=107 time=48\n",
      "note_on channel=0 note=69 velocity=0 time=192\n",
      "note_on channel=0 note=66 velocity=106 time=48\n",
      "note_on channel=0 note=66 velocity=0 time=192\n",
      "note_on channel=0 note=69 velocity=114 time=48\n",
      "note_on channel=0 note=69 velocity=0 time=192\n",
      "note_on channel=0 note=69 velocity=122 time=48\n",
      "note_on channel=0 note=69 velocity=0 time=384\n",
      "note_on channel=0 note=71 velocity=106 time=96\n",
      "note_on channel=0 note=71 velocity=0 time=448\n",
      "note_on channel=0 note=73 velocity=110 time=112\n",
      "note_on channel=0 note=73 velocity=0 time=256\n",
      "note_on channel=0 note=69 velocity=112 time=64\n",
      "note_on channel=0 note=69 velocity=0 time=256\n",
      "note_on channel=0 note=71 velocity=110 time=64\n",
      "note_on channel=0 note=71 velocity=0 time=96\n",
      "note_on channel=0 note=69 velocity=110 time=24\n",
      "note_on channel=0 note=69 velocity=0 time=96\n",
      "note_on channel=0 note=67 velocity=109 time=24\n",
      "note_on channel=0 note=67 velocity=0 time=700\n",
      "note_on channel=0 note=67 velocity=110 time=260\n",
      "note_on channel=0 note=67 velocity=0 time=192\n",
      "note_on channel=0 note=69 velocity=110 time=48\n",
      "note_on channel=0 note=69 velocity=0 time=192\n",
      "note_on channel=0 note=67 velocity=103 time=48\n",
      "note_on channel=0 note=67 velocity=0 time=192\n",
      "note_on channel=0 note=72 velocity=109 time=48\n",
      "note_on channel=0 note=72 velocity=0 time=192\n",
      "note_on channel=0 note=69 velocity=123 time=48\n",
      "note_on channel=0 note=69 velocity=0 time=384\n",
      "note_on channel=0 note=71 velocity=99 time=96\n",
      "note_on channel=0 note=71 velocity=0 time=384\n",
      "note_on channel=0 note=72 velocity=113 time=96\n",
      "note_on channel=0 note=72 velocity=0 time=192\n",
      "note_on channel=0 note=69 velocity=113 time=48\n",
      "note_on channel=0 note=69 velocity=0 time=384\n",
      "note_on channel=0 note=71 velocity=104 time=96\n",
      "note_on channel=0 note=71 velocity=0 time=192\n",
      "note_on channel=0 note=69 velocity=102 time=48\n",
      "note_on channel=0 note=69 velocity=0 time=700\n",
      "note_on channel=0 note=69 velocity=98 time=980\n",
      "note_on channel=0 note=69 velocity=0 time=192\n",
      "note_on channel=0 note=69 velocity=117 time=48\n",
      "note_on channel=0 note=69 velocity=0 time=384\n",
      "note_on channel=0 note=71 velocity=110 time=96\n",
      "note_on channel=0 note=71 velocity=0 time=384\n",
      "note_on channel=0 note=66 velocity=110 time=96\n",
      "note_on channel=0 note=66 velocity=0 time=576\n",
      "note_on channel=0 note=72 velocity=100 time=144\n",
      "note_on channel=0 note=72 velocity=0 time=192\n",
      "note_on channel=0 note=71 velocity=112 time=48\n",
      "note_on channel=0 note=71 velocity=0 time=384\n",
      "note_on channel=0 note=71 velocity=117 time=96\n",
      "note_on channel=0 note=71 velocity=0 time=384\n",
      "note_on channel=0 note=66 velocity=104 time=96\n",
      "note_on channel=0 note=66 velocity=0 time=192\n",
      "note_on channel=0 note=69 velocity=123 time=48\n",
      "note_on channel=0 note=69 velocity=0 time=384\n",
      "note_on channel=0 note=72 velocity=110 time=96\n",
      "note_on channel=0 note=72 velocity=0 time=384\n",
      "note_on channel=0 note=72 velocity=107 time=96\n",
      "note_on channel=0 note=72 velocity=0 time=460\n",
      "note_on channel=0 note=72 velocity=108 time=15620\n",
      "note_on channel=0 note=72 velocity=0 time=384\n",
      "note_on channel=0 note=69 velocity=124 time=96\n",
      "note_on channel=0 note=69 velocity=0 time=192\n",
      "note_on channel=0 note=69 velocity=96 time=48\n",
      "note_on channel=0 note=69 velocity=0 time=460\n",
      "note_on channel=0 note=66 velocity=125 time=740\n",
      "note_on channel=0 note=66 velocity=0 time=192\n",
      "note_on channel=0 note=69 velocity=122 time=48\n",
      "note_on channel=0 note=69 velocity=0 time=192\n",
      "note_on channel=0 note=66 velocity=113 time=48\n",
      "note_on channel=0 note=66 velocity=0 time=192\n",
      "note_on channel=0 note=69 velocity=110 time=48\n",
      "note_on channel=0 note=69 velocity=0 time=192\n",
      "note_on channel=0 note=69 velocity=106 time=48\n",
      "note_on channel=0 note=69 velocity=0 time=384\n",
      "note_on channel=0 note=71 velocity=110 time=96\n",
      "note_on channel=0 note=71 velocity=0 time=448\n",
      "note_on channel=0 note=72 velocity=110 time=112\n",
      "note_on channel=0 note=72 velocity=0 time=256\n",
      "note_on channel=0 note=69 velocity=111 time=64\n",
      "note_on channel=0 note=69 velocity=0 time=256\n",
      "note_on channel=0 note=71 velocity=116 time=64\n",
      "note_on channel=0 note=71 velocity=0 time=96\n",
      "note_on channel=0 note=69 velocity=122 time=24\n",
      "note_on channel=0 note=69 velocity=0 time=96\n",
      "note_on channel=0 note=67 velocity=111 time=24\n",
      "note_on channel=0 note=67 velocity=0 time=700\n",
      "note_on channel=0 note=67 velocity=113 time=260\n",
      "note_on channel=0 note=67 velocity=0 time=192\n",
      "note_on channel=0 note=69 velocity=101 time=48\n",
      "note_on channel=0 note=69 velocity=0 time=192\n",
      "note_on channel=0 note=67 velocity=114 time=48\n",
      "note_on channel=0 note=67 velocity=0 time=192\n",
      "note_on channel=0 note=72 velocity=100 time=48\n",
      "note_on channel=0 note=72 velocity=0 time=192\n",
      "note_on channel=0 note=69 velocity=121 time=48\n",
      "note_on channel=0 note=69 velocity=0 time=384\n",
      "note_on channel=0 note=71 velocity=119 time=96\n",
      "note_on channel=0 note=71 velocity=0 time=384\n",
      "note_on channel=0 note=72 velocity=95 time=96\n",
      "note_on channel=0 note=72 velocity=0 time=192\n",
      "note_on channel=0 note=69 velocity=110 time=48\n",
      "note_on channel=0 note=69 velocity=0 time=384\n",
      "note_on channel=0 note=69 velocity=122 time=96\n",
      "note_on channel=0 note=69 velocity=0 time=384\n",
      "note_on channel=0 note=69 velocity=110 time=96\n",
      "note_on channel=0 note=69 velocity=0 time=460\n",
      "note_on channel=0 note=66 velocity=108 time=260\n",
      "note_on channel=0 note=66 velocity=0 time=192\n",
      "note_on channel=0 note=69 velocity=115 time=48\n",
      "note_on channel=0 note=69 velocity=0 time=192\n",
      "note_on channel=0 note=71 velocity=122 time=48\n",
      "note_on channel=0 note=71 velocity=0 time=384\n",
      "note_on channel=0 note=66 velocity=108 time=96\n",
      "note_on channel=0 note=66 velocity=0 time=700\n",
      "note_on channel=0 note=66 velocity=110 time=260\n",
      "note_on channel=0 note=66 velocity=0 time=192\n",
      "note_on channel=0 note=69 velocity=123 time=48\n",
      "note_on channel=0 note=69 velocity=0 time=192\n",
      "note_on channel=0 note=71 velocity=107 time=48\n",
      "note_on channel=0 note=71 velocity=0 time=384\n",
      "note_on channel=0 note=69 velocity=119 time=96\n",
      "note_on channel=0 note=69 velocity=0 time=220\n",
      "note_on channel=0 note=66 velocity=110 time=260\n",
      "note_on channel=0 note=66 velocity=0 time=192\n",
      "note_on channel=0 note=72 velocity=112 time=48\n",
      "note_on channel=0 note=72 velocity=0 time=192\n",
      "note_on channel=0 note=69 velocity=100 time=48\n",
      "note_on channel=0 note=69 velocity=0 time=384\n",
      "note_on channel=0 note=71 velocity=109 time=96\n",
      "note_on channel=0 note=71 velocity=0 time=384\n",
      "note_on channel=0 note=72 velocity=121 time=96\n",
      "note_on channel=0 note=72 velocity=0 time=192\n",
      "note_on channel=0 note=71 velocity=114 time=48\n",
      "note_on channel=0 note=71 velocity=0 time=192\n",
      "note_on channel=0 note=69 velocity=104 time=48\n",
      "note_on channel=0 note=69 velocity=0 time=192\n",
      "note_on channel=0 note=71 velocity=106 time=48\n",
      "note_on channel=0 note=71 velocity=0 time=192\n",
      "note_on channel=0 note=69 velocity=98 time=48\n",
      "note_on channel=0 note=69 velocity=0 time=384\n",
      "note_on channel=0 note=69 velocity=110 time=96\n",
      "note_on channel=0 note=69 velocity=0 time=384\n",
      "note_on channel=0 note=72 velocity=121 time=96\n",
      "note_on channel=0 note=72 velocity=0 time=192\n",
      "note_on channel=0 note=71 velocity=105 time=48\n",
      "note_on channel=0 note=71 velocity=0 time=192\n",
      "note_on channel=0 note=71 velocity=108 time=48\n",
      "note_on channel=0 note=71 velocity=0 time=384\n",
      "note_on channel=0 note=69 velocity=99 time=96\n",
      "note_on channel=0 note=69 velocity=0 time=384\n",
      "note_on channel=0 note=66 velocity=103 time=96\n",
      "note_on channel=0 note=66 velocity=0 time=192\n",
      "note_on channel=0 note=69 velocity=110 time=48\n",
      "note_on channel=0 note=69 velocity=0 time=192\n",
      "note_on channel=0 note=69 velocity=101 time=48\n",
      "note_on channel=0 note=69 velocity=0 time=384\n",
      "note_on channel=0 note=71 velocity=117 time=96\n",
      "note_on channel=0 note=71 velocity=0 time=700\n",
      "note_on channel=0 note=72 velocity=110 time=740\n",
      "note_on channel=0 note=72 velocity=0 time=192\n",
      "note_on channel=0 note=71 velocity=96 time=48\n",
      "note_on channel=0 note=71 velocity=0 time=192\n",
      "note_on channel=0 note=71 velocity=105 time=48\n",
      "note_on channel=0 note=71 velocity=0 time=384\n",
      "note_on channel=0 note=69 velocity=111 time=96\n",
      "note_on channel=0 note=69 velocity=0 time=220\n",
      "note_on channel=0 note=69 velocity=122 time=500\n",
      "note_on channel=0 note=69 velocity=0 time=192\n",
      "note_on channel=0 note=69 velocity=110 time=48\n",
      "note_on channel=0 note=69 velocity=0 time=384\n",
      "note_on channel=0 note=69 velocity=103 time=96\n",
      "note_on channel=0 note=69 velocity=0 time=700\n",
      "note_on channel=0 note=72 velocity=110 time=740\n",
      "note_on channel=0 note=72 velocity=0 time=192\n",
      "note_on channel=0 note=71 velocity=110 time=48\n",
      "note_on channel=0 note=71 velocity=0 time=192\n",
      "note_on channel=0 note=71 velocity=96 time=48\n",
      "note_on channel=0 note=71 velocity=0 time=384\n",
      "note_on channel=0 note=69 velocity=102 time=96\n",
      "note_on channel=0 note=69 velocity=0 time=220\n",
      "note_on channel=0 note=69 velocity=114 time=500\n",
      "note_on channel=0 note=69 velocity=0 time=192\n",
      "note_on channel=0 note=69 velocity=110 time=48\n",
      "note_on channel=0 note=69 velocity=0 time=384\n",
      "note_on channel=0 note=71 velocity=113 time=96\n",
      "note_on channel=0 note=71 velocity=0 time=700\n",
      "note_on channel=0 note=74 velocity=110 time=500\n",
      "note_on channel=0 note=74 velocity=0 time=192\n",
      "note_on channel=0 note=73 velocity=121 time=48\n",
      "note_on channel=0 note=73 velocity=0 time=384\n",
      "note_on channel=0 note=71 velocity=122 time=96\n",
      "note_on channel=0 note=71 velocity=0 time=384\n",
      "note_on channel=0 note=66 velocity=115 time=96\n",
      "note_on channel=0 note=66 velocity=0 time=192\n",
      "note_on channel=0 note=69 velocity=125 time=48\n",
      "note_on channel=0 note=69 velocity=0 time=384\n",
      "note_on channel=0 note=72 velocity=99 time=96\n",
      "note_on channel=0 note=72 velocity=0 time=384\n",
      "note_on channel=0 note=72 velocity=100 time=96\n",
      "note_on channel=0 note=72 velocity=0 time=460\n",
      "control_change channel=0 control=86 value=37 time=20\n",
      "note_on channel=0 note=67 velocity=98 time=240\n",
      "note_on channel=0 note=67 velocity=0 time=192\n",
      "note_on channel=0 note=68 velocity=102 time=48\n",
      "note_on channel=0 note=68 velocity=0 time=192\n",
      "note_on channel=0 note=69 velocity=119 time=48\n",
      "note_on channel=0 note=69 velocity=0 time=700\n",
      "control_change channel=0 control=86 value=37 time=20\n",
      "note_on channel=0 note=67 velocity=109 time=720\n",
      "note_on channel=0 note=67 velocity=0 time=192\n",
      "note_on channel=0 note=68 velocity=110 time=48\n",
      "note_on channel=0 note=68 velocity=0 time=192\n",
      "note_on channel=0 note=69 velocity=113 time=48\n",
      "note_on channel=0 note=69 velocity=0 time=700\n",
      "control_change channel=0 control=86 value=37 time=20\n",
      "control_change channel=0 control=86 value=37 time=480\n",
      "note_on channel=0 note=67 velocity=112 time=240\n",
      "note_on channel=0 note=67 velocity=0 time=192\n",
      "note_on channel=0 note=68 velocity=103 time=48\n",
      "note_on channel=0 note=68 velocity=0 time=192\n",
      "note_on channel=0 note=69 velocity=109 time=48\n",
      "note_on channel=0 note=69 velocity=0 time=700\n",
      "control_change channel=0 control=86 value=37 time=20\n",
      "note_on channel=0 note=67 velocity=110 time=720\n",
      "note_on channel=0 note=67 velocity=0 time=192\n",
      "note_on channel=0 note=68 velocity=96 time=48\n",
      "note_on channel=0 note=68 velocity=0 time=192\n",
      "note_on channel=0 note=69 velocity=125 time=48\n",
      "note_on channel=0 note=69 velocity=0 time=700\n",
      "control_change channel=0 control=86 value=37 time=20\n",
      "note_on channel=0 note=67 velocity=110 time=720\n",
      "note_on channel=0 note=67 velocity=0 time=192\n",
      "note_on channel=0 note=68 velocity=122 time=48\n",
      "note_on channel=0 note=68 velocity=0 time=192\n",
      "note_on channel=0 note=69 velocity=100 time=48\n",
      "note_on channel=0 note=69 velocity=0 time=700\n",
      "control_change channel=0 control=86 value=37 time=20\n",
      "<meta message end_of_track time=1>\n"
     ]
    }
   ],
   "source": [
    "for m in mido_data.tracks[1]:\n",
    "    print(m)"
   ]
  }
 ],
 "metadata": {
  "kernelspec": {
   "display_name": "Python 3",
   "language": "python",
   "name": "python3"
  },
  "language_info": {
   "codemirror_mode": {
    "name": "ipython",
    "version": 3
   },
   "file_extension": ".py",
   "mimetype": "text/x-python",
   "name": "python",
   "nbconvert_exporter": "python",
   "pygments_lexer": "ipython3",
   "version": "3.7.3"
  }
 },
 "nbformat": 4,
 "nbformat_minor": 2
}
